<?xml version="1.0" encoding="utf-8" standalone="no"?>
<!DOCTYPE svg PUBLIC "-//W3C//DTD SVG 1.1//EN"
  "http://www.w3.org/Graphics/SVG/1.1/DTD/svg11.dtd">
<svg xmlns:xlink="http://www.w3.org/1999/xlink" width="228pt" height="96pt" viewBox="0 0 228 96" xmlns="http://www.w3.org/2000/svg" version="1.1">
 <metadata>
  <rdf:RDF xmlns:dc="http://purl.org/dc/elements/1.1/" xmlns:cc="http://creativecommons.org/ns#" xmlns:rdf="http://www.w3.org/1999/02/22-rdf-syntax-ns#">
   <cc:Work>
    <dc:type rdf:resource="http://purl.org/dc/dcmitype/StillImage"/>
    <dc:date>2026-08-18T18:50:26.296775</dc:date>
    <dc:format>image/svg+xml</dc:format>
    <dc:creator>
     <cc:Agent>
      <dc:title>Matplotlib v3.7.1, https://matplotlib.org/</dc:title>
     </cc:Agent>
    </dc:creator>
   </cc:Work>
  </rdf:RDF>
 </metadata>
 <defs>
  <style type="text/css">*{stroke-linejoin: round; stroke-linecap: butt}</style>
 </defs>
 <g id="figure_1">
  <g id="patch_1">
   <path d="M 0 96 
L 228 96 
L 228 0 
L 0 0 
z
" style="fill: #ffffff"/>
  </g>
  <g id="axes_1">
   <g id="patch_2">
    <path d="M 38.76 66.24 
L 224.58 66.24 
L 224.58 3.84 
L 38.76 3.84 
z
" style="fill: #ffffff"/>
   </g>
   <g id="matplotlib.axis_1">
    <g id="xtick_1">
     <g id="line2d_1">
      <path d="M 47.206364 66.24 
L 47.206364 3.84 
" clip-path="url(#p2fe46d5724)" style="fill: none; stroke: #dedede; stroke-opacity: 0.8; stroke-width: 0.55; stroke-linecap: square"/>
     </g>
     <g id="line2d_2">
      <defs>
       <path id="m997f49521d" d="M 0 0 
L 0 3 
" style="stroke: #000000; stroke-width: 0.8"/>
      </defs>
      <g>
       <use xlink:href="#m997f49521d" x="47.206364" y="66.24" style="stroke: #000000; stroke-width: 0.8"/>
      </g>
     </g>
     <g id="text_1">
      <text style="font: 10.8px 'Arial', 'Helvetica', 'DejaVu Sans', sans-serif; text-anchor: middle" x="47.206364" y="79.246312" transform="rotate(-0 47.206364 79.246312)">0.0</text>
     </g>
    </g>
    <g id="xtick_2">
     <g id="line2d_3">
      <path d="M 84.527192 66.24 
L 84.527192 3.84 
" clip-path="url(#p2fe46d5724)" style="fill: none; stroke: #dedede; stroke-opacity: 0.8; stroke-width: 0.55; stroke-linecap: square"/>
     </g>
     <g id="line2d_4">
      <g>
       <use xlink:href="#m997f49521d" x="84.527192" y="66.24" style="stroke: #000000; stroke-width: 0.8"/>
      </g>
     </g>
     <g id="text_2">
      <text style="font: 10.8px 'Arial', 'Helvetica', 'DejaVu Sans', sans-serif; text-anchor: middle" x="84.527192" y="79.246312" transform="rotate(-0 84.527192 79.246312)">2.5</text>
     </g>
    </g>
    <g id="xtick_3">
     <g id="line2d_5">
      <path d="M 121.848021 66.24 
L 121.848021 3.84 
" clip-path="url(#p2fe46d5724)" style="fill: none; stroke: #dedede; stroke-opacity: 0.8; stroke-width: 0.55; stroke-linecap: square"/>
     </g>
     <g id="line2d_6">
      <g>
       <use xlink:href="#m997f49521d" x="121.848021" y="66.24" style="stroke: #000000; stroke-width: 0.8"/>
      </g>
     </g>
     <g id="text_3">
      <text style="font: 10.8px 'Arial', 'Helvetica', 'DejaVu Sans', sans-serif; text-anchor: middle" x="121.848021" y="79.246312" transform="rotate(-0 121.848021 79.246312)">5.0</text>
     </g>
    </g>
    <g id="xtick_4">
     <g id="line2d_7">
      <path d="M 159.16885 66.24 
L 159.16885 3.84 
" clip-path="url(#p2fe46d5724)" style="fill: none; stroke: #dedede; stroke-opacity: 0.8; stroke-width: 0.55; stroke-linecap: square"/>
     </g>
     <g id="line2d_8">
      <g>
       <use xlink:href="#m997f49521d" x="159.16885" y="66.24" style="stroke: #000000; stroke-width: 0.8"/>
      </g>
     </g>
     <g id="text_4">
      <text style="font: 10.8px 'Arial', 'Helvetica', 'DejaVu Sans', sans-serif; text-anchor: middle" x="159.16885" y="79.246312" transform="rotate(-0 159.16885 79.246312)">7.5</text>
     </g>
    </g>
    <g id="xtick_5">
     <g id="line2d_9">
      <path d="M 196.489679 66.24 
L 196.489679 3.84 
" clip-path="url(#p2fe46d5724)" style="fill: none; stroke: #dedede; stroke-opacity: 0.8; stroke-width: 0.55; stroke-linecap: square"/>
     </g>
     <g id="line2d_10">
      <g>
       <use xlink:href="#m997f49521d" x="196.489679" y="66.24" style="stroke: #000000; stroke-width: 0.8"/>
      </g>
     </g>
     <g id="text_5">
      <text style="font: 10.8px 'Arial', 'Helvetica', 'DejaVu Sans', sans-serif; text-anchor: middle" x="196.489679" y="79.246312" transform="rotate(-0 196.489679 79.246312)">10.0</text>
     </g>
    </g>
    <g id="text_6">
     <text style="font: 12.4px 'Arial', 'Helvetica', 'DejaVu Sans', sans-serif; text-anchor: middle" x="131.67" y="92.714438" transform="rotate(-0 131.67 92.714438)">Time [s]</text>
    </g>
   </g>
   <g id="matplotlib.axis_2">
    <g id="ytick_1">
     <g id="line2d_11">
      <path d="M 38.76 57.341955 
L 224.58 57.341955 
" clip-path="url(#p2fe46d5724)" style="fill: none; stroke: #dedede; stroke-opacity: 0.8; stroke-width: 0.55; stroke-linecap: square"/>
     </g>
     <g id="line2d_12">
      <defs>
       <path id="m17d77951f5" d="M 0 0 
L -3 0 
" style="stroke: #000000; stroke-width: 0.8"/>
      </defs>
      <g>
       <use xlink:href="#m17d77951f5" x="38.76" y="57.341955" style="stroke: #000000; stroke-width: 0.8"/>
      </g>
     </g>
     <g id="text_7">
      <text style="font: 10.8px 'Arial', 'Helvetica', 'DejaVu Sans', sans-serif; text-anchor: end" x="33.96" y="61.445111" transform="rotate(-0 33.96 61.445111)">−0.5</text>
     </g>
    </g>
    <g id="ytick_2">
     <g id="line2d_13">
      <path d="M 38.76 35.084039 
L 224.58 35.084039 
" clip-path="url(#p2fe46d5724)" style="fill: none; stroke: #dedede; stroke-opacity: 0.8; stroke-width: 0.55; stroke-linecap: square"/>
     </g>
     <g id="line2d_14">
      <g>
       <use xlink:href="#m17d77951f5" x="38.76" y="35.084039" style="stroke: #000000; stroke-width: 0.8"/>
      </g>
     </g>
     <g id="text_8">
      <text style="font: 10.8px 'Arial', 'Helvetica', 'DejaVu Sans', sans-serif; text-anchor: end" x="33.96" y="39.187195" transform="rotate(-0 33.96 39.187195)">0.0</text>
     </g>
    </g>
    <g id="ytick_3">
     <g id="line2d_15">
      <path d="M 38.76 12.826123 
L 224.58 12.826123 
" clip-path="url(#p2fe46d5724)" style="fill: none; stroke: #dedede; stroke-opacity: 0.8; stroke-width: 0.55; stroke-linecap: square"/>
     </g>
     <g id="line2d_16">
      <g>
       <use xlink:href="#m17d77951f5" x="38.76" y="12.826123" style="stroke: #000000; stroke-width: 0.8"/>
      </g>
     </g>
     <g id="text_9">
      <text style="font: 10.8px 'Arial', 'Helvetica', 'DejaVu Sans', sans-serif; text-anchor: end" x="33.96" y="16.92928" transform="rotate(-0 33.96 16.92928)">0.5</text>
     </g>
    </g>
    <g id="text_10">
     <text style="font: 12.4px 'Arial', 'Helvetica', 'DejaVu Sans', sans-serif; text-anchor: middle" x="3.349938" y="35.04" transform="rotate(-90 3.349938 35.04)">χ [rad]</text>
    </g>
   </g>
   <g id="line2d_17">
    <path d="M 47.206364 37.269062 
L 52.029189 37.325012 
L 55.134883 37.135601 
L 56.000322 36.906115 
L 56.838675 36.537285 
L 58.350125 35.1751 
L 59.051855 34.495248 
L 59.800898 34.100202 
L 60.527222 34.023695 
L 61.995741 34.395316 
L 64.168204 35.182694 
L 67.166709 36.857253 
L 68.013487 37.324166 
L 69.679975 37.812025 
L 71.111674 38.040038 
L 73.361286 38.157157 
L 75.735911 37.770065 
L 77.938766 37.23522 
L 79.354413 36.66469 
L 82.960596 34.237422 
L 84.456952 33.005602 
L 87.365203 31.035647 
L 88.091918 30.71313 
L 89.627094 30.557416 
L 90.431525 30.53809 
L 91.183518 30.39306 
L 91.933354 30.103645 
L 92.681802 29.683332 
L 94.996102 27.685814 
L 97.392972 25.134222 
L 100.576858 21.176993 
L 103.028144 17.218545 
L 105.454901 12.578017 
L 106.300693 10.64469 
L 107.895264 8.236011 
L 108.729293 7.320738 
L 109.481243 6.676364 
L 110.261269 7.027583 
L 111.095404 7.995837 
L 111.913004 9.85393 
L 112.751621 12.534217 
L 113.613728 18.908549 
L 114.574546 24.571524 
L 115.397413 35.150692 
L 116.120634 38.465206 
L 116.857195 46.710786 
L 117.556099 48.591792 
L 118.253351 49.768874 
L 118.903416 56.599403 
L 119.601726 57.285509 
L 120.307201 57.729517 
L 120.997264 61.857744 
L 121.668723 61.553927 
L 123.078416 61.928453 
L 123.873137 63.403636 
L 124.553174 62.573548 
L 125.264407 61.43902 
L 125.968077 61.345473 
L 126.664437 60.76855 
L 127.385283 59.837644 
L 128.071435 58.494441 
L 128.760199 57.753054 
L 133.814991 50.609306 
L 134.532592 49.964028 
L 136.026869 48.261423 
L 136.820334 47.785657 
L 137.628234 47.164173 
L 138.506977 46.908016 
L 142.07201 44.097701 
L 144.102496 41.785138 
L 145.526002 40.312609 
L 147.066922 38.7126 
L 149.927911 36.051549 
L 151.246808 35.167903 
L 152.040106 34.798503 
L 152.880427 34.660347 
L 154.351281 34.683219 
L 156.369393 34.096634 
L 157.714792 33.407854 
L 158.406208 32.898171 
L 159.08281 32.545202 
L 159.743634 31.933778 
L 160.397593 31.542061 
L 162.498417 29.60295 
L 163.157814 28.650558 
L 164.471155 27.573622 
L 165.159528 26.758062 
L 167.550294 25.170403 
L 169.195733 24.986716 
L 169.920808 25.095215 
L 170.679008 25.054391 
L 171.508816 25.779025 
L 172.175061 26.024064 
L 173.525824 28.142163 
L 174.21734 28.621864 
L 174.893992 31.245677 
L 175.542761 32.735007 
L 176.200987 34.893277 
L 176.916431 36.590126 
L 177.727123 39.531472 
L 180.087973 43.650857 
L 180.833984 44.203987 
L 181.648323 44.432038 
L 183.853143 43.063604 
L 184.588233 42.092329 
L 188.124653 36.495183 
L 190.217016 34.273162 
L 190.928965 33.792426 
L 191.631795 33.566599 
L 193.021293 33.729062 
L 197.882348 34.241505 
L 199.329454 34.107002 
L 200.834241 33.806491 
L 204.194577 32.407245 
L 205.637573 31.872 
L 207.183263 31.683542 
L 208.012625 31.720027 
L 210.347448 32.34709 
L 211.770612 33.058799 
L 214.757308 35.047188 
L 215.420759 35.754737 
L 216.133636 36.323352 
L 216.133636 36.323352 
" clip-path="url(#p2fe46d5724)" style="fill: none; stroke: #d97706; stroke-width: 1.9; stroke-linecap: square"/>
   </g>
   <g id="line2d_18">
    <path d="M 38.76 35.084039 
L 224.58 35.084039 
" clip-path="url(#p2fe46d5724)" style="fill: none; stroke-dasharray: 0.7,1.155; stroke-dashoffset: 0; stroke: #595959; stroke-width: 0.7"/>
   </g>
   <g id="patch_3">
    <path d="M 38.76 66.24 
L 38.76 3.84 
" style="fill: none; stroke: #000000; stroke-width: 0.8; stroke-linejoin: miter; stroke-linecap: square"/>
   </g>
   <g id="patch_4">
    <path d="M 38.76 66.24 
L 224.58 66.24 
" style="fill: none; stroke: #000000; stroke-width: 0.8; stroke-linejoin: miter; stroke-linecap: square"/>
   </g>
  </g>
 </g>
 <defs>
  <clipPath id="p2fe46d5724">
   <rect x="38.76" y="3.84" width="185.82" height="62.4"/>
  </clipPath>
 </defs>
</svg>
