<?xml version="1.0" encoding="utf-8" standalone="no"?>
<!DOCTYPE svg PUBLIC "-//W3C//DTD SVG 1.1//EN"
  "http://www.w3.org/Graphics/SVG/1.1/DTD/svg11.dtd">
<svg xmlns:xlink="http://www.w3.org/1999/xlink" width="228pt" height="96pt" viewBox="0 0 228 96" xmlns="http://www.w3.org/2000/svg" version="1.1">
 <metadata>
  <rdf:RDF xmlns:dc="http://purl.org/dc/elements/1.1/" xmlns:cc="http://creativecommons.org/ns#" xmlns:rdf="http://www.w3.org/1999/02/22-rdf-syntax-ns#">
   <cc:Work>
    <dc:type rdf:resource="http://purl.org/dc/dcmitype/StillImage"/>
    <dc:date>2026-08-18T18:50:28.383765</dc:date>
    <dc:format>image/svg+xml</dc:format>
    <dc:creator>
     <cc:Agent>
      <dc:title>Matplotlib v3.7.1, https://matplotlib.org/</dc:title>
     </cc:Agent>
    </dc:creator>
   </cc:Work>
  </rdf:RDF>
 </metadata>
 <defs>
  <style type="text/css">*{stroke-linejoin: round; stroke-linecap: butt}</style>
 </defs>
 <g id="figure_1">
  <g id="patch_1">
   <path d="M 0 96 
L 228 96 
L 228 0 
L 0 0 
z
" style="fill: #ffffff"/>
  </g>
  <g id="axes_1">
   <g id="patch_2">
    <path d="M 38.76 66.24 
L 224.58 66.24 
L 224.58 3.84 
L 38.76 3.84 
z
" style="fill: #ffffff"/>
   </g>
   <g id="matplotlib.axis_1">
    <g id="xtick_1">
     <g id="line2d_1">
      <path d="M 47.206364 66.24 
L 47.206364 3.84 
" clip-path="url(#p77287409cc)" style="fill: none; stroke: #dedede; stroke-opacity: 0.8; stroke-width: 0.55; stroke-linecap: square"/>
     </g>
     <g id="line2d_2">
      <defs>
       <path id="m2ac32adabb" d="M 0 0 
L 0 3 
" style="stroke: #000000; stroke-width: 0.8"/>
      </defs>
      <g>
       <use xlink:href="#m2ac32adabb" x="47.206364" y="66.24" style="stroke: #000000; stroke-width: 0.8"/>
      </g>
     </g>
     <g id="text_1">
      <text style="font: 10.8px 'Arial', 'Helvetica', 'DejaVu Sans', sans-serif; text-anchor: middle" x="47.206364" y="79.246312" transform="rotate(-0 47.206364 79.246312)">0</text>
     </g>
    </g>
    <g id="xtick_2">
     <g id="line2d_3">
      <path d="M 105.601294 66.24 
L 105.601294 3.84 
" clip-path="url(#p77287409cc)" style="fill: none; stroke: #dedede; stroke-opacity: 0.8; stroke-width: 0.55; stroke-linecap: square"/>
     </g>
     <g id="line2d_4">
      <g>
       <use xlink:href="#m2ac32adabb" x="105.601294" y="66.24" style="stroke: #000000; stroke-width: 0.8"/>
      </g>
     </g>
     <g id="text_2">
      <text style="font: 10.8px 'Arial', 'Helvetica', 'DejaVu Sans', sans-serif; text-anchor: middle" x="105.601294" y="79.246312" transform="rotate(-0 105.601294 79.246312)">10</text>
     </g>
    </g>
    <g id="xtick_3">
     <g id="line2d_5">
      <path d="M 163.996223 66.24 
L 163.996223 3.84 
" clip-path="url(#p77287409cc)" style="fill: none; stroke: #dedede; stroke-opacity: 0.8; stroke-width: 0.55; stroke-linecap: square"/>
     </g>
     <g id="line2d_6">
      <g>
       <use xlink:href="#m2ac32adabb" x="163.996223" y="66.24" style="stroke: #000000; stroke-width: 0.8"/>
      </g>
     </g>
     <g id="text_3">
      <text style="font: 10.8px 'Arial', 'Helvetica', 'DejaVu Sans', sans-serif; text-anchor: middle" x="163.996223" y="79.246312" transform="rotate(-0 163.996223 79.246312)">20</text>
     </g>
    </g>
    <g id="xtick_4">
     <g id="line2d_7">
      <path d="M 222.391153 66.24 
L 222.391153 3.84 
" clip-path="url(#p77287409cc)" style="fill: none; stroke: #dedede; stroke-opacity: 0.8; stroke-width: 0.55; stroke-linecap: square"/>
     </g>
     <g id="line2d_8">
      <g>
       <use xlink:href="#m2ac32adabb" x="222.391153" y="66.24" style="stroke: #000000; stroke-width: 0.8"/>
      </g>
     </g>
     <g id="text_4">
      <text style="font: 10.8px 'Arial', 'Helvetica', 'DejaVu Sans', sans-serif; text-anchor: middle" x="222.391153" y="79.246312" transform="rotate(-0 222.391153 79.246312)">30</text>
     </g>
    </g>
    <g id="text_5">
     <text style="font: 12.4px 'Arial', 'Helvetica', 'DejaVu Sans', sans-serif; text-anchor: middle" x="131.67" y="92.714438" transform="rotate(-0 131.67 92.714438)">Time [s]</text>
    </g>
   </g>
   <g id="matplotlib.axis_2">
    <g id="ytick_1">
     <g id="line2d_9">
      <path d="M 38.76 55.201216 
L 224.58 55.201216 
" clip-path="url(#p77287409cc)" style="fill: none; stroke: #dedede; stroke-opacity: 0.8; stroke-width: 0.55; stroke-linecap: square"/>
     </g>
     <g id="line2d_10">
      <defs>
       <path id="m12023b5f4b" d="M 0 0 
L -3 0 
" style="stroke: #000000; stroke-width: 0.8"/>
      </defs>
      <g>
       <use xlink:href="#m12023b5f4b" x="38.76" y="55.201216" style="stroke: #000000; stroke-width: 0.8"/>
      </g>
     </g>
     <g id="text_6">
      <text style="font: 10.8px 'Arial', 'Helvetica', 'DejaVu Sans', sans-serif; text-anchor: end" x="33.96" y="59.304373" transform="rotate(-0 33.96 59.304373)">−25</text>
     </g>
    </g>
    <g id="ytick_2">
     <g id="line2d_11">
      <path d="M 38.76 29.037673 
L 224.58 29.037673 
" clip-path="url(#p77287409cc)" style="fill: none; stroke: #dedede; stroke-opacity: 0.8; stroke-width: 0.55; stroke-linecap: square"/>
     </g>
     <g id="line2d_12">
      <g>
       <use xlink:href="#m12023b5f4b" x="38.76" y="29.037673" style="stroke: #000000; stroke-width: 0.8"/>
      </g>
     </g>
     <g id="text_7">
      <text style="font: 10.8px 'Arial', 'Helvetica', 'DejaVu Sans', sans-serif; text-anchor: end" x="33.96" y="33.14083" transform="rotate(-0 33.96 33.14083)">0</text>
     </g>
    </g>
    <g id="text_8">
     <text style="font: 12.4px 'Arial', 'Helvetica', 'DejaVu Sans', sans-serif; text-anchor: middle" x="6.788125" y="35.04" transform="rotate(-90 6.788125 35.04)">a [m s⁻²]</text>
    </g>
   </g>
   <g id="line2d_13">
    <path d="M 47.206364 25.046712 
L 47.438705 25.591969 
L 47.684754 25.495313 
L 47.904915 25.253379 
L 48.139313 27.441983 
L 48.377351 27.203073 
L 48.861704 25.384549 
L 49.114928 28.435876 
L 49.386603 26.111464 
L 49.634038 26.042662 
L 49.867881 27.433006 
L 50.114296 27.517947 
L 50.348748 27.300319 
L 50.568874 27.768187 
L 50.806101 27.206231 
L 51.035439 26.993722 
L 51.267853 26.983882 
L 51.49658 27.783186 
L 51.731407 27.750434 
L 51.960631 26.630853 
L 52.20233 27.350176 
L 52.455182 26.196509 
L 52.693586 27.25717 
L 52.928429 25.395422 
L 53.168115 27.861716 
L 53.414803 25.877878 
L 53.663041 22.702265 
L 53.941119 29.374698 
L 54.187588 22.929463 
L 54.435836 22.311463 
L 54.664494 29.191797 
L 54.887071 23.038182 
L 55.0998 21.878101 
L 55.320106 26.177132 
L 55.557975 26.054894 
L 56.037368 20.74445 
L 56.533728 27.057043 
L 56.750728 21.3766 
L 56.972167 25.967406 
L 57.197754 22.595777 
L 57.427594 22.638187 
L 57.658505 26.349743 
L 57.921009 21.31841 
L 58.204909 25.746303 
L 58.441692 25.396765 
L 58.686028 21.484727 
L 58.932786 27.16931 
L 59.166037 22.538947 
L 59.39794 26.56672 
L 59.643694 22.853853 
L 59.890746 22.449909 
L 60.125154 26.359845 
L 60.820918 22.85781 
L 61.058966 25.106532 
L 61.322501 26.244112 
L 61.576204 22.74305 
L 62.04595 27.278984 
L 62.277721 24.224471 
L 62.520778 24.680748 
L 62.764811 24.278398 
L 63.002661 25.370806 
L 63.248296 24.886363 
L 63.512441 26.926017 
L 63.799102 23.130363 
L 64.042129 28.109725 
L 64.500897 22.195595 
L 64.72619 23.441315 
L 64.957354 28.458531 
L 65.43976 20.212578 
L 65.899729 27.78705 
L 66.138499 24.156389 
L 66.360927 23.788811 
L 66.583833 25.66972 
L 66.826149 18.399592 
L 67.070092 30.722241 
L 67.330112 28.631575 
L 67.559697 19.439739 
L 67.823641 23.828421 
L 68.071316 31.480343 
L 68.33027 24.394479 
L 68.604659 20.823054 
L 68.853302 29.204898 
L 69.357724 23.587326 
L 69.846116 25.917578 
L 70.091074 25.515655 
L 70.335002 25.745741 
L 70.602849 25.753395 
L 70.853219 27.201344 
L 71.100794 23.855836 
L 71.620817 26.582526 
L 71.871665 26.594249 
L 72.139576 24.535288 
L 72.40854 26.222616 
L 72.658826 26.325886 
L 72.910652 26.068733 
L 73.182885 26.256529 
L 73.428619 25.523823 
L 73.6812 28.300883 
L 73.961875 21.689906 
L 74.531879 29.217172 
L 74.803333 24.675836 
L 75.082177 26.115904 
L 75.352569 24.68547 
L 75.627924 28.659132 
L 75.909652 26.3101 
L 76.414795 25.803581 
L 76.697617 26.992499 
L 77.274762 26.091846 
L 77.807817 26.702561 
L 78.057705 25.930844 
L 78.331423 27.241004 
L 78.598783 25.844107 
L 78.877703 27.598062 
L 79.168167 25.968331 
L 79.447166 26.906035 
L 79.728331 26.422062 
L 79.98983 26.650255 
L 80.266549 26.532318 
L 80.553182 27.95031 
L 80.821081 25.646827 
L 81.112906 27.690485 
L 81.384547 25.558035 
L 81.961147 27.605781 
L 82.239113 26.555988 
L 82.501084 26.404125 
L 82.800947 27.591666 
L 83.092812 26.519635 
L 83.377818 26.14679 
L 83.646248 28.606888 
L 83.9092 27.029378 
L 84.191097 31.772368 
L 84.468169 28.898494 
L 84.74652 39.443998 
L 85.0196 62.085786 
L 85.859894 47.209237 
L 86.138123 53.998476 
L 86.400794 53.295215 
L 86.674298 53.429939 
L 86.954692 63.403636 
L 87.516823 32.287779 
L 87.783026 29.279786 
L 88.093849 57.712714 
L 88.3761 59.660949 
L 88.628692 63.19412 
L 88.959412 55.301607 
L 89.241068 56.444635 
L 89.535795 55.755319 
L 89.800144 49.810653 
L 90.068158 55.272013 
L 90.345422 57.342484 
L 90.616651 31.289231 
L 90.880848 50.272696 
L 91.150562 57.464824 
L 91.413067 44.17355 
L 91.667218 52.144857 
L 91.972054 53.162833 
L 92.235961 45.623239 
L 92.499709 45.101561 
L 92.753551 35.076921 
L 93.077309 46.835871 
L 93.358279 47.186931 
L 93.944826 42.316894 
L 94.228601 42.446183 
L 94.503199 39.866544 
L 94.772044 41.206095 
L 95.076264 39.845018 
L 95.374366 34.857779 
L 95.619458 38.31799 
L 95.901788 39.519993 
L 96.150933 36.150648 
L 96.406209 35.193272 
L 96.677508 36.637361 
L 96.959218 37.166344 
L 97.230927 34.654795 
L 97.49199 35.601714 
L 97.772098 32.136307 
L 98.296715 35.609255 
L 98.56548 33.120946 
L 98.835459 33.17582 
L 99.089009 35.726856 
L 99.360918 35.301257 
L 99.624066 31.526976 
L 99.880874 34.390999 
L 100.16963 34.693548 
L 100.430332 34.534811 
L 100.679753 32.355847 
L 101.207756 37.078293 
L 101.456272 30.243333 
L 101.701332 32.138004 
L 101.94347 32.243717 
L 102.195271 36.306333 
L 102.446671 33.529582 
L 102.693406 33.220226 
L 102.936059 30.385201 
L 103.182188 30.606669 
L 103.437988 32.152295 
L 103.683868 29.665157 
L 103.933565 31.604308 
L 104.215116 28.111247 
L 104.51924 29.639366 
L 104.801828 29.330799 
L 105.077955 30.991323 
L 105.344363 28.209535 
L 105.604606 31.002032 
L 105.897807 29.60759 
L 106.233365 28.730148 
L 106.491515 29.657038 
L 106.755441 31.095866 
L 107.012126 29.365279 
L 107.266322 30.386018 
L 107.537935 27.10297 
L 107.80116 30.083575 
L 108.062428 27.139309 
L 108.321726 31.489448 
L 108.576255 29.794046 
L 108.828041 29.606478 
L 109.0919 29.674083 
L 109.348927 29.267706 
L 109.60451 30.861162 
L 109.867505 28.619045 
L 110.121466 29.596102 
L 110.37934 29.429421 
L 110.629816 31.648243 
L 110.886518 30.74524 
L 111.145131 28.781421 
L 111.405358 33.094637 
L 111.795978 31.593565 
L 112.127689 31.41569 
L 112.407089 30.571324 
L 112.657506 31.027119 
L 112.935665 30.211421 
L 113.187603 30.31312 
L 113.450047 30.634665 
L 113.701073 29.838364 
L 113.965347 27.868344 
L 114.235976 28.593022 
L 114.791205 30.518209 
L 115.052169 26.849636 
L 115.348448 28.174936 
L 115.607843 27.844795 
L 115.868845 29.055661 
L 116.162227 27.625712 
L 116.437226 28.230725 
L 116.704668 27.213035 
L 116.996128 28.853704 
L 117.567721 27.690316 
L 117.838953 26.210332 
L 118.118089 29.47288 
L 118.351995 26.84778 
L 118.627444 30.296227 
L 118.895449 24.683182 
L 119.13734 27.227258 
L 119.389719 25.504562 
L 119.624041 29.203719 
L 119.864257 27.485268 
L 120.119861 26.86867 
L 120.370547 23.839706 
L 120.629394 24.529057 
L 120.889348 26.768401 
L 121.393609 24.381054 
L 121.894709 24.716554 
L 122.13787 23.7734 
L 122.372632 24.272236 
L 122.640192 23.95468 
L 122.898133 26.637635 
L 123.150607 27.576317 
L 123.410518 27.953406 
L 123.643175 28.808539 
L 123.883868 26.581364 
L 124.136289 28.107744 
L 124.370706 27.907928 
L 124.61868 29.674219 
L 124.867325 27.307855 
L 125.113616 22.822328 
L 125.353637 22.227715 
L 125.600422 22.317584 
L 126.073896 20.283717 
L 126.30128 21.041187 
L 126.530296 20.273816 
L 126.773532 17.915643 
L 127.026645 20.36396 
L 127.260948 19.868563 
L 127.493642 20.161077 
L 127.749368 19.00476 
L 127.978261 19.02454 
L 128.196979 18.569261 
L 128.440887 19.735085 
L 128.661807 18.674582 
L 128.884439 20.008496 
L 129.135063 17.803629 
L 129.351295 17.653528 
L 129.579141 18.681387 
L 129.814433 20.677049 
L 130.047174 20.479933 
L 130.294838 18.663424 
L 131.120515 23.092478 
L 131.349965 23.073326 
L 131.568508 19.790826 
L 131.825756 40.560006 
L 132.064285 50.299846 
L 132.285525 49.151544 
L 132.758665 48.31809 
L 132.969236 46.302404 
L 133.208777 46.649751 
L 133.436122 48.001487 
L 133.674168 50.93339 
L 134.12801 31.61534 
L 134.3821 28.244071 
L 134.626929 29.21977 
L 135.108732 27.548169 
L 135.350183 26.882324 
L 135.578131 26.819444 
L 135.798943 27.185168 
L 136.022303 25.708513 
L 136.252165 25.178568 
L 136.481712 25.239878 
L 136.929069 23.743301 
L 137.170395 24.447831 
L 137.409845 23.444297 
L 137.649523 23.052 
L 137.888249 23.489879 
L 138.123088 23.565227 
L 138.356769 21.966527 
L 138.595041 23.038843 
L 138.833551 22.98248 
L 139.064317 20.952609 
L 139.305908 21.135218 
L 139.53748 22.001977 
L 139.782832 22.307115 
L 140.242886 20.185921 
L 140.486493 22.488604 
L 140.707225 21.822043 
L 140.955496 19.601701 
L 141.187194 21.028072 
L 141.416343 23.735257 
L 142.086364 21.277653 
L 142.301082 21.064994 
L 142.522976 21.296643 
L 142.761721 21.327093 
L 143.003082 18.91654 
L 143.225818 18.496067 
L 143.677117 22.94563 
L 143.900898 21.651024 
L 144.126518 19.250257 
L 144.347078 18.287446 
L 144.57406 21.554722 
L 144.808628 23.121636 
L 145.030919 19.986057 
L 145.493882 21.133015 
L 145.720211 20.639191 
L 145.945987 19.136456 
L 146.386239 26.275401 
L 146.611934 17.405882 
L 146.836741 18.301476 
L 147.050646 22.919767 
L 147.27535 23.451548 
L 147.493594 21.029572 
L 147.713514 21.449236 
L 147.940323 22.570864 
L 148.162686 22.014667 
L 148.401648 20.307595 
L 148.635426 23.590266 
L 148.873505 23.759369 
L 149.099373 20.314902 
L 149.319101 21.160234 
L 149.553307 25.997667 
L 149.799895 25.411506 
L 150.01498 21.176975 
L 150.464401 24.968086 
L 150.689927 22.904172 
L 150.924665 21.964356 
L 151.141348 23.224396 
L 151.381412 23.4765 
L 151.598151 23.260569 
L 151.814443 23.339156 
L 152.04683 23.251354 
L 152.275533 23.303556 
L 152.495446 23.751885 
L 152.729627 23.475775 
L 152.94631 22.852593 
L 153.164807 22.955969 
L 153.393105 24.880816 
L 153.654934 22.544859 
L 154.184246 25.24726 
L 154.46183 22.898102 
L 154.698983 23.437475 
L 155.144185 23.710519 
L 155.375252 25.135941 
L 155.604549 23.531674 
L 155.838641 22.706689 
L 156.062477 24.288363 
L 156.286981 23.005715 
L 156.734822 25.803117 
L 156.96104 23.222029 
L 157.206569 22.717838 
L 157.442363 23.786467 
L 157.690936 25.703259 
L 157.927357 23.461871 
L 158.161484 23.750096 
L 158.39475 23.631731 
L 158.644238 24.127837 
L 158.916862 25.0252 
L 159.184563 24.596973 
L 159.6466 22.051228 
L 159.877055 26.114361 
L 160.107232 27.084642 
L 160.341757 22.827247 
L 160.560124 23.496286 
L 160.782129 24.768996 
L 161.018966 23.985384 
L 161.264363 25.671412 
L 161.732126 24.025039 
L 161.984217 24.231103 
L 162.216406 24.034859 
L 162.460377 26.663365 
L 162.684698 26.627077 
L 162.932801 24.976512 
L 163.370861 25.198343 
L 163.594281 25.161016 
L 163.817 25.387443 
L 164.03631 25.065786 
L 164.279449 25.052661 
L 164.502673 25.353594 
L 164.730362 25.384594 
L 164.954326 25.229254 
L 165.448253 25.41795 
L 165.676876 25.231224 
L 165.901166 25.551616 
L 166.144678 25.528478 
L 166.39578 25.369727 
L 166.864781 25.52594 
L 167.809219 25.350229 
L 168.074722 25.993303 
L 168.571082 25.527992 
L 169.025993 25.776027 
L 169.262343 25.68015 
L 170.160047 25.875028 
L 170.377533 26.143706 
L 170.606634 25.398171 
L 171.05012 26.102651 
L 171.505037 25.881337 
L 172.419129 26.02492 
L 174.037026 26.133847 
L 174.492746 26.230811 
L 177.055555 26.494611 
L 177.286028 26.288825 
L 177.52254 26.554143 
L 177.752271 26.586499 
L 178.013186 26.43786 
L 178.485324 26.564834 
L 178.708136 26.636086 
L 179.171147 26.576235 
L 179.642675 26.608742 
L 179.876428 26.64591 
L 180.102366 26.37928 
L 180.343791 27.000726 
L 180.597792 26.96277 
L 180.866108 26.547521 
L 181.334226 26.801524 
L 182.272425 26.661099 
L 182.50243 28.577157 
L 182.737277 27.196671 
L 182.967386 25.08767 
L 183.190575 27.187399 
L 183.451945 26.881875 
L 183.712287 27.482793 
L 183.987715 26.710599 
L 184.50033 27.062159 
L 184.74318 26.857068 
L 184.981725 26.960666 
L 185.223755 28.425443 
L 185.683142 26.821232 
L 185.90694 27.410469 
L 186.184587 27.423616 
L 186.430903 28.011566 
L 186.66186 26.405736 
L 187.128674 27.618308 
L 187.593574 27.390363 
L 187.821398 26.747863 
L 188.085052 27.860534 
L 188.341108 27.81432 
L 188.603593 27.196316 
L 189.111805 27.421152 
L 189.336763 27.50047 
L 189.803965 27.455524 
L 190.036103 27.487716 
L 190.255613 27.397197 
L 190.482561 27.593002 
L 190.711965 28.11481 
L 190.927794 27.269367 
L 191.158092 26.875147 
L 191.379482 27.620785 
L 191.607303 27.841217 
L 191.85037 27.472684 
L 192.079587 27.552947 
L 192.305239 27.170135 
L 192.528817 28.029468 
L 193.066028 27.443662 
L 193.556638 27.685335 
L 194.276173 27.625177 
L 194.756654 27.754485 
L 195.008012 26.179132 
L 195.270713 29.736454 
L 195.506637 27.323131 
L 195.758836 27.152715 
L 196.010006 28.685369 
L 196.240416 26.82091 
L 196.477133 27.376951 
L 196.717146 28.656291 
L 196.957903 27.533133 
L 197.1895 27.6155 
L 197.421751 27.868744 
L 197.655583 27.901884 
L 197.888175 27.780349 
L 198.13206 28.065285 
L 198.35845 27.531498 
L 198.602534 27.675681 
L 198.844026 28.180551 
L 199.074053 27.298031 
L 199.5411 28.399264 
L 199.771297 27.733292 
L 200.232745 27.535282 
L 200.465611 28.309039 
L 200.697735 28.258313 
L 200.919461 26.780914 
L 201.154862 28.861177 
L 201.378403 29.743015 
L 201.608183 26.96808 
L 201.842865 26.042647 
L 202.07646 30.070937 
L 202.312297 27.225246 
L 202.559378 27.086599 
L 203.093593 28.828767 
L 203.346697 27.395037 
L 203.565488 28.343172 
L 203.796946 28.357094 
L 204.039817 27.398229 
L 204.512371 28.829017 
L 204.763268 27.359171 
L 204.987153 27.663338 
L 205.229249 28.681979 
L 205.469071 28.02792 
L 205.710976 27.706805 
L 205.946199 28.241263 
L 206.184093 26.144378 
L 206.428792 31.296039 
L 206.888213 23.337726 
L 207.150609 33.213472 
L 207.428093 28.778373 
L 207.692447 28.635298 
L 207.953197 25.676794 
L 208.2057 28.534078 
L 208.445117 25.60051 
L 208.676405 30.449538 
L 208.909419 27.459788 
L 209.137043 28.94443 
L 209.389356 27.789043 
L 209.648308 29.921977 
L 209.903142 26.307426 
L 210.145455 28.419015 
L 210.377533 26.012308 
L 210.606645 29.478584 
L 210.839322 26.12015 
L 211.07132 30.124346 
L 211.364655 29.232767 
L 211.596381 26.812857 
L 212.102978 28.708649 
L 212.362009 26.281315 
L 212.590312 28.913291 
L 212.819155 28.994439 
L 213.081812 27.010821 
L 213.328953 28.765323 
L 213.576512 26.114509 
L 213.806859 29.72897 
L 214.260428 27.680494 
L 214.52602 28.284218 
L 214.808375 26.932106 
L 215.07716 28.69699 
L 215.412928 28.233004 
L 215.797795 28.516332 
L 216.133636 29.113367 
L 216.133636 29.113367 
" clip-path="url(#p77287409cc)" style="fill: none; stroke: #238b8b; stroke-width: 1.65; stroke-linecap: square"/>
   </g>
   <g id="line2d_14">
    <path d="M 47.206364 44.053513 
L 47.438705 42.492051 
L 47.684754 43.678126 
L 47.904915 43.234972 
L 48.139313 43.661984 
L 48.377351 42.733026 
L 48.618191 47.930793 
L 48.861704 42.961476 
L 49.114928 45.994471 
L 49.386603 45.941484 
L 49.634038 46.109287 
L 49.867881 44.019221 
L 50.114296 45.48482 
L 50.348748 44.84622 
L 51.035439 46.961557 
L 51.267853 45.11452 
L 51.49658 44.773835 
L 51.731407 45.186639 
L 51.960631 44.860769 
L 52.20233 45.557882 
L 52.455182 45.278345 
L 52.693586 44.323562 
L 52.928429 44.574672 
L 53.168115 43.163218 
L 53.414803 44.376133 
L 53.663041 43.543247 
L 53.941119 41.467856 
L 54.187588 41.103109 
L 54.435836 41.413679 
L 54.664494 37.668026 
L 54.887071 37.164142 
L 55.0998 37.974593 
L 55.557975 30.641795 
L 56.037368 27.65108 
L 56.300421 24.325797 
L 56.533728 27.788758 
L 56.750728 21.018217 
L 56.972167 25.167668 
L 57.197754 22.098167 
L 57.427594 21.896916 
L 57.658505 20.37555 
L 57.921009 20.532167 
L 58.204909 20.182876 
L 58.441692 19.153821 
L 58.686028 16.949549 
L 58.932786 19.757392 
L 59.166037 23.993499 
L 59.39794 18.017261 
L 59.890746 19.626154 
L 60.125154 18.387271 
L 60.355829 18.854724 
L 60.589905 16.402159 
L 60.820918 18.818957 
L 61.058966 19.938069 
L 61.322501 18.968294 
L 61.806861 21.870929 
L 62.04595 18.055277 
L 62.277721 19.542034 
L 62.520778 17.458107 
L 63.002661 20.419519 
L 63.248296 18.966671 
L 63.512441 18.752399 
L 64.042129 19.037963 
L 64.270524 19.431619 
L 64.500897 16.513674 
L 64.72619 20.431874 
L 64.957354 21.886875 
L 65.43976 17.298567 
L 65.662604 19.022818 
L 65.899729 22.114686 
L 66.138499 19.380637 
L 66.360927 18.935935 
L 66.583833 19.602233 
L 66.826149 18.508292 
L 67.070092 23.553379 
L 67.559697 20.738355 
L 67.823641 21.845266 
L 68.071316 23.862986 
L 68.33027 22.014047 
L 68.604659 25.341147 
L 68.853302 22.587603 
L 69.111701 25.202943 
L 69.357724 23.146289 
L 69.604643 23.675958 
L 69.846116 25.022895 
L 70.091074 24.965257 
L 70.335002 25.622052 
L 70.602849 25.688411 
L 70.853219 25.143579 
L 71.100794 25.21854 
L 71.620817 27.378748 
L 71.871665 26.180388 
L 72.139576 26.173716 
L 72.40854 27.008821 
L 72.658826 27.112077 
L 72.910652 26.159869 
L 73.182885 27.555019 
L 73.428619 28.084525 
L 73.6812 27.08021 
L 73.961875 27.3867 
L 74.237024 27.400206 
L 74.531879 28.436774 
L 74.803333 26.913641 
L 75.082177 27.620301 
L 75.352569 28.901941 
L 75.909652 28.753191 
L 76.165657 27.456403 
L 76.414795 28.658051 
L 76.697617 27.516148 
L 77.005254 27.886226 
L 77.274762 27.391028 
L 77.542407 28.43208 
L 77.807817 28.20888 
L 78.057705 29.16226 
L 78.331423 28.34422 
L 78.598783 29.368155 
L 78.877703 26.429335 
L 79.168167 28.502486 
L 79.728331 28.31639 
L 79.98983 29.8129 
L 80.266549 26.557128 
L 80.553182 29.425419 
L 80.821081 29.083569 
L 81.112906 30.843552 
L 81.384547 27.976181 
L 81.646822 27.013063 
L 81.961147 27.449449 
L 82.239113 26.276778 
L 82.501084 30.376717 
L 82.800947 24.86591 
L 83.092812 30.42559 
L 83.377818 29.614504 
L 83.646248 29.551075 
L 83.9092 26.027193 
L 84.191097 25.931488 
L 84.468169 28.137716 
L 84.74652 22.713244 
L 85.0196 22.422187 
L 85.314994 24.920844 
L 85.602455 22.143122 
L 85.859894 24.337207 
L 86.954692 27.136682 
L 87.234306 26.110399 
L 87.516823 27.151313 
L 87.783026 28.973292 
L 88.093849 27.825889 
L 88.3761 29.918558 
L 88.628692 28.688806 
L 88.959412 29.724644 
L 89.241068 29.231391 
L 89.535795 30.002656 
L 89.800144 23.895256 
L 90.345422 20.553484 
L 90.616651 25.82189 
L 90.880848 25.914063 
L 91.150562 27.983154 
L 91.413067 25.558488 
L 91.667218 31.352934 
L 91.972054 33.762819 
L 92.235961 34.787786 
L 92.499709 34.123433 
L 92.753551 28.352202 
L 93.077309 30.709615 
L 93.655122 25.266097 
L 93.944826 29.972706 
L 94.228601 25.568031 
L 94.503199 28.34051 
L 94.772044 25.741756 
L 95.076264 27.867711 
L 95.374366 24.018122 
L 95.619458 25.79109 
L 96.150933 23.481925 
L 96.406209 22.488591 
L 96.677508 21.880194 
L 96.959218 22.160204 
L 97.230927 20.219283 
L 97.49199 21.535603 
L 97.772098 19.805579 
L 98.028619 21.232866 
L 98.296715 15.371217 
L 98.56548 22.898258 
L 98.835459 19.201379 
L 99.089009 19.162304 
L 99.624066 17.970889 
L 99.880874 19.467144 
L 100.16963 16.271104 
L 100.430332 21.255738 
L 100.945304 14.144474 
L 101.456272 19.135736 
L 101.701332 18.20272 
L 101.94347 22.694142 
L 102.195271 17.640759 
L 102.446671 22.311352 
L 102.693406 14.958553 
L 102.936059 14.382297 
L 103.182188 20.811071 
L 103.437988 14.749876 
L 103.683868 12.488902 
L 103.933565 22.514144 
L 104.215116 21.290541 
L 104.51924 16.983692 
L 104.801828 21.512419 
L 105.897807 16.269371 
L 106.233365 17.763421 
L 106.491515 16.075295 
L 106.755441 20.74892 
L 107.012126 12.085581 
L 107.266322 17.648748 
L 107.537935 13.473492 
L 107.80116 14.490793 
L 108.062428 16.551207 
L 108.321726 9.942754 
L 108.576255 15.214013 
L 108.828041 12.71472 
L 109.0919 13.049083 
L 109.348927 10.397818 
L 109.60451 14.656413 
L 109.867505 12.110443 
L 110.37934 15.072879 
L 110.629816 8.307194 
L 110.886518 14.25748 
L 111.145131 12.538131 
L 111.405358 8.633475 
L 112.127689 15.48658 
L 112.407089 10.768765 
L 112.657506 13.865181 
L 112.935665 12.526845 
L 113.187603 15.194009 
L 113.450047 11.928604 
L 113.701073 12.104682 
L 113.965347 11.047098 
L 114.235976 16.720822 
L 114.532521 12.193248 
L 114.791205 13.843311 
L 115.052169 14.627131 
L 115.348448 13.140632 
L 115.607843 17.617556 
L 115.868845 13.529726 
L 116.704668 16.986901 
L 116.996128 15.065705 
L 117.278049 14.649293 
L 117.567721 17.953288 
L 117.838953 9.098352 
L 118.118089 20.063237 
L 118.351995 13.80923 
L 118.627444 19.776765 
L 118.895449 11.742518 
L 119.13734 19.510527 
L 119.389719 19.279935 
L 119.624041 6.676364 
L 119.864257 16.150557 
L 120.119861 11.631105 
L 120.370547 15.129992 
L 120.629394 12.479119 
L 120.889348 16.965052 
L 121.393609 13.152998 
L 121.661879 17.483247 
L 121.894709 14.220669 
L 122.13787 12.461888 
L 122.372632 17.916608 
L 122.640192 14.832519 
L 122.898133 14.251549 
L 123.150607 19.501445 
L 123.410518 15.308524 
L 123.883868 13.306374 
L 124.136289 21.343153 
L 124.370706 15.840945 
L 124.61868 12.785355 
L 124.867325 22.463053 
L 125.113616 17.51101 
L 125.353637 19.415327 
L 125.600422 18.65725 
L 125.841983 20.484471 
L 126.073896 19.983182 
L 126.30128 17.582937 
L 126.530296 21.235146 
L 126.773532 21.026101 
L 127.026645 21.285724 
L 127.493642 22.476819 
L 127.749368 21.679067 
L 127.978261 23.152116 
L 128.196979 22.807238 
L 128.440887 24.778622 
L 128.661807 23.730735 
L 128.884439 25.301286 
L 129.135063 25.481241 
L 129.351295 26.148287 
L 129.579141 25.176898 
L 129.814433 29.847149 
L 130.047174 26.125833 
L 130.294838 27.376013 
L 130.583998 26.796654 
L 130.86038 25.240069 
L 131.120515 26.735817 
L 131.349965 22.509472 
L 131.568508 28.383752 
L 131.825756 25.29658 
L 132.064285 27.877867 
L 132.285525 27.773305 
L 132.520994 30.069872 
L 132.969236 25.013747 
L 133.208777 30.966082 
L 133.436122 27.564135 
L 133.674168 26.04675 
L 134.3821 17.545107 
L 134.626929 17.699093 
L 134.85733 20.168607 
L 135.108732 14.798161 
L 135.350183 19.97836 
L 135.578131 20.310791 
L 135.798943 20.194928 
L 136.022303 26.587641 
L 136.252165 23.398061 
L 136.481712 25.734878 
L 136.708605 31.771391 
L 136.929069 26.847421 
L 137.170395 31.826852 
L 137.409845 29.559144 
L 137.888249 30.909958 
L 138.123088 29.862921 
L 138.356769 30.840987 
L 138.595041 30.875662 
L 138.833551 29.676073 
L 139.064317 30.793853 
L 139.305908 30.480736 
L 139.53748 29.858934 
L 139.782832 30.576703 
L 140.015105 29.949521 
L 140.242886 31.34383 
L 140.486493 29.032117 
L 140.707225 32.418577 
L 140.955496 30.092335 
L 141.187194 30.220813 
L 141.416343 30.895989 
L 141.631205 30.052879 
L 141.866125 30.617516 
L 142.086364 29.827114 
L 142.301082 31.394318 
L 142.522976 30.124504 
L 142.761721 30.793855 
L 143.003082 30.821162 
L 143.225818 30.060166 
L 143.446825 30.76953 
L 143.677117 30.605345 
L 143.900898 31.732945 
L 144.126518 30.214088 
L 144.347078 31.394742 
L 144.57406 27.982828 
L 144.808628 32.374194 
L 145.030919 28.485861 
L 145.264272 32.901761 
L 145.493882 29.615755 
L 145.720211 31.400678 
L 145.945987 29.786041 
L 146.165098 29.386523 
L 146.386239 31.474798 
L 146.611934 29.293615 
L 146.836741 32.358458 
L 147.27535 28.623926 
L 147.493594 31.441648 
L 147.713514 29.26612 
L 147.940323 31.125644 
L 148.162686 31.112496 
L 148.401648 30.209758 
L 148.635426 29.994561 
L 149.319101 30.547722 
L 149.553307 29.885303 
L 149.799895 30.391786 
L 150.01498 30.03523 
L 150.240499 30.383498 
L 150.464401 30.109138 
L 150.689927 30.377561 
L 150.924665 30.092318 
L 151.141348 30.580085 
L 151.381412 30.032863 
L 151.598151 30.685573 
L 151.814443 30.626452 
L 152.275533 29.919404 
L 152.495446 30.588049 
L 152.729627 29.66925 
L 152.94631 30.772481 
L 153.164807 29.018471 
L 153.393105 30.119061 
L 153.654934 30.034606 
L 153.8916 29.825371 
L 154.698983 30.585953 
L 154.918944 29.866129 
L 155.144185 29.679244 
L 155.375252 29.285908 
L 155.604549 30.444808 
L 156.062477 29.651402 
L 156.286981 29.574605 
L 156.510948 29.923569 
L 156.734822 29.693874 
L 156.96104 30.069759 
L 157.690936 29.692509 
L 157.927357 29.668799 
L 158.161484 30.090616 
L 158.39475 29.976381 
L 158.644238 30.562171 
L 158.916862 29.460666 
L 159.184563 29.874648 
L 159.421755 29.537402 
L 159.6466 30.214819 
L 159.877055 28.451476 
L 160.341757 29.623818 
L 160.782129 30.012257 
L 161.018966 29.522147 
L 161.264363 29.397163 
L 161.484478 29.646719 
L 161.984217 29.392534 
L 162.216406 29.984885 
L 162.460377 29.39706 
L 162.684698 29.481205 
L 163.370861 29.068101 
L 163.594281 29.298227 
L 164.03631 29.293348 
L 164.954326 29.100161 
L 165.448253 29.25482 
L 165.676876 29.165423 
L 165.901166 29.280009 
L 166.144678 29.099882 
L 166.637131 29.148062 
L 167.315442 29.187214 
L 167.549846 29.071274 
L 167.809219 29.242331 
L 168.31146 29.035603 
L 168.810825 29.0965 
L 169.025993 28.955507 
L 169.482844 29.084453 
L 169.935615 28.943777 
L 170.160047 29.017429 
L 170.377533 28.904522 
L 171.05012 28.960872 
L 176.595191 28.841388 
L 176.836608 29.046378 
L 177.055555 28.805472 
L 177.286028 28.775261 
L 177.52254 28.973112 
L 177.752271 28.549172 
L 178.485324 28.834977 
L 179.407984 28.595696 
L 179.876428 28.868643 
L 180.102366 28.744746 
L 180.343791 28.818378 
L 181.098916 28.633106 
L 181.579212 28.78135 
L 181.803363 28.137401 
L 182.035257 27.828614 
L 182.272425 28.830384 
L 182.50243 28.575914 
L 182.737277 27.99736 
L 182.967386 28.348272 
L 183.190575 28.12116 
L 183.451945 28.07543 
L 184.259831 27.223622 
L 184.50033 27.081663 
L 184.74318 27.260196 
L 184.981725 27.717307 
L 185.223755 27.869376 
L 185.458167 28.605374 
L 185.90694 29.080864 
L 186.184587 28.915772 
L 186.430903 29.220656 
L 186.892422 29.238715 
L 187.128674 29.666457 
L 187.352589 29.6803 
L 188.085052 28.795951 
L 188.341108 29.089129 
L 188.603593 28.237237 
L 188.872118 28.181738 
L 189.336763 28.85354 
L 189.803965 28.525515 
L 190.255613 28.551874 
L 190.482561 28.354721 
L 190.711965 27.618946 
L 191.607303 28.099778 
L 191.85037 28.315513 
L 192.079587 28.267007 
L 192.305239 28.101685 
L 192.528817 28.134773 
L 193.303184 28.88559 
L 193.556638 28.844958 
L 194.023574 29.351409 
L 194.756654 29.11769 
L 195.008012 25.606527 
L 195.506637 30.96323 
L 195.758836 28.209378 
L 196.010006 31.603236 
L 196.477133 26.353726 
L 196.717146 29.605825 
L 196.957903 28.839792 
L 197.1895 28.497816 
L 197.421751 29.448057 
L 197.655583 28.710492 
L 198.13206 29.002379 
L 198.35845 28.719514 
L 198.602534 28.602014 
L 198.844026 29.350895 
L 199.305781 28.063919 
L 199.5411 28.674438 
L 199.771297 28.768084 
L 200.001982 28.387353 
L 200.232745 28.679277 
L 200.697735 28.587144 
L 201.154862 28.00728 
L 201.378403 28.338273 
L 201.608183 28.303124 
L 201.842865 28.134305 
L 202.07646 28.139565 
L 202.312297 28.355214 
L 202.559378 28.786995 
L 203.093593 28.310909 
L 203.346697 28.646571 
L 203.565488 29.368572 
L 203.796946 28.310492 
L 204.039817 28.539077 
L 204.282701 27.994532 
L 204.512371 27.862001 
L 204.763268 28.201534 
L 204.987153 27.501314 
L 205.229249 27.778916 
L 205.469071 27.453423 
L 205.946199 27.366423 
L 206.184093 27.814168 
L 206.428792 26.507087 
L 207.150609 25.291069 
L 207.428093 25.452304 
L 207.953197 23.151745 
L 208.2057 24.127544 
L 208.445117 23.89691 
L 208.676405 23.387458 
L 208.909419 23.844693 
L 209.137043 23.307051 
L 209.389356 23.308234 
L 210.145455 25.193909 
L 210.606645 27.401228 
L 210.839322 27.171098 
L 211.07132 26.63534 
L 211.364655 27.701084 
L 211.596381 27.487669 
L 211.83329 28.283302 
L 212.102978 30.754322 
L 212.362009 31.214881 
L 212.819155 32.30525 
L 213.081812 32.06031 
L 213.328953 32.251355 
L 213.576512 32.7817 
L 213.806859 32.317974 
L 214.042649 32.523502 
L 214.260428 34.458896 
L 214.808375 35.676315 
L 215.07716 36.0992 
L 215.412928 35.519456 
L 215.797795 35.80246 
L 216.133636 34.578932 
L 216.133636 34.578932 
" clip-path="url(#p77287409cc)" style="fill: none; stroke: #7a3e9d; stroke-width: 1.55; stroke-linecap: square"/>
   </g>
   <g id="line2d_15">
    <path d="M 38.76 29.037673 
L 224.58 29.037673 
" clip-path="url(#p77287409cc)" style="fill: none; stroke-dasharray: 0.7,1.155; stroke-dashoffset: 0; stroke: #595959; stroke-width: 0.7"/>
   </g>
   <g id="patch_3">
    <path d="M 38.76 66.24 
L 38.76 3.84 
" style="fill: none; stroke: #000000; stroke-width: 0.8; stroke-linejoin: miter; stroke-linecap: square"/>
   </g>
   <g id="patch_4">
    <path d="M 38.76 66.24 
L 224.58 66.24 
" style="fill: none; stroke: #000000; stroke-width: 0.8; stroke-linejoin: miter; stroke-linecap: square"/>
   </g>
   <g id="legend_1">
    <g id="line2d_16">
     <path d="M 44.535 13.918359 
L 51.6225 13.918359 
L 58.71 13.918359 
" style="fill: none; stroke: #238b8b; stroke-width: 1.65; stroke-linecap: square"/>
    </g>
    <g id="text_9">
     <text style="font: 10.5px 'Arial', 'Helvetica', 'DejaVu Sans', sans-serif; text-anchor: start" x="67.11" y="17.593359" transform="rotate(-0 67.11 17.593359)">aT</text>
    </g>
    <g id="line2d_17">
     <path d="M 86.782734 13.918359 
L 93.870234 13.918359 
L 100.957734 13.918359 
" style="fill: none; stroke: #7a3e9d; stroke-width: 1.55; stroke-linecap: square"/>
    </g>
    <g id="text_10">
     <text style="font: 10.5px 'Arial', 'Helvetica', 'DejaVu Sans', sans-serif; text-anchor: start" x="109.357734" y="17.593359" transform="rotate(-0 109.357734 17.593359)">aN</text>
    </g>
   </g>
  </g>
 </g>
 <defs>
  <clipPath id="p77287409cc">
   <rect x="38.76" y="3.84" width="185.82" height="62.4"/>
  </clipPath>
 </defs>
</svg>
